<svg width="24" height="24" viewBox="0 0 24 24" fill="none" xmlns="http://www.w3.org/2000/svg">
<path d="M19.0378 5.80411L19.0379 5.80424L19.0481 5.79587C19.2723 5.61098 19.5454 5.49522 19.8342 5.46264C20.123 5.43006 20.415 5.48208 20.6748 5.61237C20.9346 5.74265 21.1509 5.9456 21.2975 6.19654C21.4441 6.44747 21.5147 6.73559 21.5006 7.02587L21.5 7.03798V7.0501V18.6401C21.5 18.8682 21.4094 19.0869 21.2481 19.2482C21.0868 19.4095 20.8681 19.5001 20.64 19.5001H17.95V12.2801V11.2797L17.1499 11.8802L12 15.745L6.85012 11.8802L6.05 11.2797V12.2801V19.5001H3.36C3.13191 19.5001 2.91317 19.4095 2.75189 19.2482C2.59061 19.0869 2.5 18.8682 2.5 18.6401V7.0501V7.0327L2.49879 7.01536C2.4784 6.72255 2.54436 6.4302 2.6885 6.17451C2.83264 5.91883 3.04862 5.71105 3.3097 5.57692C3.57077 5.44279 3.86546 5.3882 4.15726 5.41992C4.44905 5.45164 4.72513 5.56826 4.95129 5.75536L4.95117 5.75551L4.96218 5.76411L6.24218 6.76411L6.24212 6.76418L6.24988 6.77001L11.6999 10.86L11.9985 11.0841L12.2982 10.8614L17.7482 6.81142L17.7483 6.81153L17.7578 6.80411L19.0378 5.80411Z" stroke="white"/>
</svg>
