<svg width="201" height="78" viewBox="0 0 201 78" fill="none" xmlns="http://www.w3.org/2000/svg">
<path d="M12.6987 53.5702C12.6046 53.8563 12.4048 54.0224 12.0991 54.0686C11.8213 54.1131 11.4334 53.9678 10.9352 53.6328C10.5785 53.3173 10.3381 53.0651 10.2138 52.8762C10.1194 52.7135 10.1558 52.4028 10.3231 51.9441C10.4921 51.5133 10.7797 50.7389 11.1858 49.6209C11.255 48.9436 11.4082 48.2614 11.6451 47.5741C11.8804 46.8589 12.059 46.3575 12.181 46.0698C12.268 45.6719 12.4509 45.0159 12.7296 44.1018C13.0344 43.1581 13.375 42.1141 13.7514 40.9698C14.1557 39.8239 14.5364 38.7495 14.8937 37.7465C15.2491 36.7157 15.5087 35.943 15.6725 35.4284C16.0768 34.2824 16.4915 33.0797 16.9166 31.8204C17.3418 30.561 17.9282 28.9695 18.676 27.0458C18.7701 26.7597 18.8074 26.463 18.7879 26.1556C18.7963 25.8466 18.563 25.7062 18.0878 25.7344C17.7888 25.4436 17.6156 25.1453 17.5681 24.8396C17.5189 24.5059 17.6436 24.2601 17.9422 24.1021L20.0666 23.0925C21.3608 22.7072 22.6971 22.5438 24.0755 22.6022C25.4802 22.6311 26.8178 22.9304 28.0884 23.5001C29.4796 24.2029 30.4805 24.9429 31.0909 25.7201C31.6995 26.4694 32.0295 27.2492 32.0809 28.0596C32.1603 28.8683 32.071 29.673 31.8132 30.4737C31.6268 31.0738 31.2343 31.7422 30.6357 32.4789C30.0651 33.214 29.3827 33.9557 28.5885 34.7041C27.8222 35.4508 27.0104 36.144 26.1532 36.7839C25.3222 37.3942 24.5391 37.8755 23.8039 38.2276C23.1264 38.6044 22.4183 38.9409 21.6796 39.2372C20.9408 39.5335 20.1742 39.8314 19.3795 40.131C18.9394 40.2693 18.4119 40.3567 17.797 40.3932C17.182 40.4297 16.7173 40.4012 16.4028 40.3076L15.8149 42.32C15.5992 43.3425 15.2049 44.8665 14.6319 46.892C14.0869 48.9158 13.4425 51.1419 12.6987 53.5702ZM29.3727 53.0437C29.1544 53.1408 28.8906 53.1845 28.5814 53.1748C28.3001 53.1634 27.8248 52.9672 27.1553 52.5862C25.8794 51.9326 24.5937 51.1254 23.2983 50.1644C22.0029 49.2035 20.5308 47.8884 18.8818 46.2191C18.2506 45.5554 17.7067 44.9425 17.2502 44.3806C16.8217 43.8169 16.3502 43.0175 15.8356 41.9821L15.1051 39.7535L16.1972 39.0576L17.8023 40.477C18.3115 41.4285 18.9439 42.3307 19.6993 43.1834C20.4828 44.0345 21.2041 44.7911 21.8633 45.4532C22.4036 46.0102 23.1336 46.6821 24.0533 47.469C24.9711 48.228 25.9431 48.9557 26.9693 49.6521C27.9954 50.3485 28.9122 50.8691 29.7196 51.2139C29.8962 51.3437 29.9653 51.5499 29.9272 51.8327C29.889 52.1155 29.8071 52.3728 29.6815 52.6046C29.5857 52.8627 29.4827 53.0091 29.3727 53.0437ZM17.5669 38.0928C18.2062 37.9988 18.9512 37.8003 19.8017 37.4974C20.6505 37.1665 21.4965 36.7938 22.34 36.3791C23.1258 35.9398 23.949 35.4281 24.8098 34.8441C25.6967 34.2305 26.5102 33.5652 27.2503 32.8481C27.9904 32.131 28.575 31.3951 29.0041 30.6403C29.4611 29.8839 29.6387 29.1441 29.5367 28.4209C29.5137 28.0576 29.35 27.6887 29.0457 27.3141C28.7414 26.9394 28.3838 26.61 27.973 26.3259C27.5622 26.0417 27.1716 25.8545 26.8011 25.7643C25.6654 25.5512 24.7315 25.4243 23.9994 25.3836C23.2674 25.3429 22.7119 25.4319 22.333 25.6508C21.9523 25.8416 21.7098 26.2207 21.6055 26.7878C21.6108 26.8717 21.5167 27.1577 21.3233 27.6461C21.1298 28.1344 20.8875 28.7378 20.5964 29.4563C20.3332 30.1731 20.0727 30.9319 19.8149 31.7325C19.1089 33.4293 18.5737 34.7233 18.2093 35.6144C17.8432 36.4776 17.6149 37.0802 17.5244 37.4222C17.4338 37.7641 17.448 37.9877 17.5669 38.0928ZM42.127 49.2155C41.8298 48.9527 41.5263 48.592 41.2167 48.1335C40.9053 47.6471 40.6454 47.0876 40.4369 46.4548C40.3668 46.2346 40.3194 45.9288 40.2946 45.5376C40.2977 45.1448 40.28 44.8653 40.2414 44.6993C40.17 44.8999 40.0435 45.1178 39.862 45.3529C39.7067 45.5585 39.5496 45.7361 39.3908 45.8858C39.2861 46.0042 39.0487 46.2427 38.6787 46.6012C38.3068 46.9318 37.9315 47.2065 37.5526 47.4253C36.6674 48.0669 35.9191 48.4338 35.3078 48.5262C34.7243 48.6169 34.1458 48.3427 33.5722 47.7036C33.102 47.3668 32.7548 46.9807 32.5308 46.5452C32.3348 46.1081 32.2958 45.4933 32.4139 44.7009C32.4078 43.7196 32.4873 42.7612 32.6524 41.8258C32.8158 40.8624 33.1972 39.5776 33.7967 37.9713C34.311 36.7908 34.7051 35.9259 34.9789 35.3767C35.2509 34.7996 35.4253 34.4527 35.5021 34.3359C35.9125 34.1713 36.2627 34.1646 36.5529 34.3156C36.8412 34.4388 37.0258 34.6943 37.1065 35.0822C37.2919 35.3517 37.2941 35.8284 37.113 36.5123C36.9599 37.1946 36.6628 38.0396 36.2217 39.0475C35.8906 40.0208 35.5875 40.9925 35.3124 41.9625C35.0651 42.9308 34.9349 43.752 34.9215 44.4259C34.9081 45.0999 35.1015 45.4951 35.5017 45.6116C35.7621 45.7364 36.1927 45.6688 36.7934 45.4088C37.4221 45.1471 38.0994 44.5459 38.8253 43.6053C39.5792 42.663 40.2759 41.2613 40.9154 39.4001C41.1035 38.828 41.2402 38.329 41.3255 37.9032C41.4089 37.4495 41.4478 36.9563 41.4421 36.4237C41.3649 36.0917 41.3603 35.7975 41.4282 35.541C41.5222 35.2549 41.7308 35.0041 42.0538 34.7886C42.1567 34.6423 42.3025 34.5074 42.4911 34.384C42.6779 34.2327 42.8036 34.2252 42.8684 34.3616L43.5366 34.2799C43.6466 34.2453 43.7209 34.3111 43.7595 34.4771C43.8242 34.6135 43.93 34.7334 44.0769 34.8369C44.4003 35.0701 44.5187 35.6101 44.4321 36.4567C44.3455 37.3033 44.0286 38.5002 43.4815 40.0473C43.023 41.2245 42.7146 42.1123 42.5562 42.7107C42.4257 43.3075 42.3642 43.8862 42.3717 44.4467C42.4036 44.9497 42.5315 45.4189 42.7555 45.8544C42.9795 46.2899 43.3127 46.6768 43.755 47.0152C44.0749 47.1926 44.2567 47.4062 44.3006 47.656C44.3725 47.9042 44.4051 48.1968 44.3984 48.5338C44.3584 48.7886 44.204 49.0081 43.9351 49.1924C43.6924 49.347 43.4034 49.4343 43.068 49.4542C42.7326 49.4741 42.4189 49.3945 42.127 49.2155ZM51.1162 47.5462C50.8961 47.6153 50.6044 47.6607 50.2411 47.6822C49.8759 47.6758 49.5518 47.653 49.2688 47.6137C49.0119 47.5448 48.8808 47.4684 48.8755 47.3846C48.8666 47.2449 48.7923 47.1792 48.6526 47.1875C48.6526 47.1875 48.5792 47.1357 48.4323 47.0322C48.3134 46.9271 48.1247 46.8261 47.866 46.7292C47.5897 46.353 47.4373 45.9413 47.4089 45.4942C47.3788 45.0191 47.4576 44.2711 47.6454 43.2502C47.6849 42.5467 47.8991 41.7205 48.2878 40.7718C48.7027 39.7936 49.2146 38.7955 49.8234 37.7777C50.4322 36.7598 51.0751 35.8381 51.7523 35.0126C52.4573 34.1854 53.1058 33.5719 53.6977 33.1721C54.0642 32.7577 54.526 32.5199 55.0833 32.4588C55.6405 32.3977 56.1796 32.4919 56.7004 32.7415C56.9888 32.8647 57.2825 33.0716 57.5815 33.3624C57.8805 33.6532 58.1673 33.9728 58.4418 34.3211C58.7164 34.6695 58.9491 35.0203 59.1399 35.3736C59.2432 35.676 59.3028 35.953 59.3188 36.2045C59.3609 36.4264 59.3786 36.7058 59.372 37.0428C59.3932 37.3781 59.3832 37.8836 59.3419 38.5592C59.234 39.0705 59.1472 39.6927 59.0815 40.4259C59.0437 41.1574 59.0417 41.7887 59.0753 42.3196C59.0531 42.8538 59.1329 43.2278 59.3148 43.4414C59.5246 43.6533 59.805 43.6507 60.156 43.4335C60.4808 43.246 60.7978 43.157 61.107 43.1667C61.4144 43.1485 61.6573 43.2182 61.8357 43.3759C62.042 43.532 62.1557 43.7777 62.177 44.113C62.1983 44.4483 62.0527 44.8076 61.7404 45.1908C61.4542 45.5443 61.0815 45.861 60.6222 46.1406C60.1892 46.3907 59.763 46.5282 59.3438 46.5531C59.0363 46.5713 58.7313 46.4071 58.4288 46.0604C58.1245 45.6858 57.8437 45.2396 57.5864 44.722C57.3553 44.1747 57.1399 43.6546 56.9403 43.1615L56.6276 42.2124L54.9338 44.0379C54.5952 44.4507 54.2549 44.8355 53.9128 45.1924C53.5969 45.5197 53.4015 45.7557 53.3265 45.9004C53.2027 46.1601 52.9531 46.4274 52.5777 46.7021C52.2303 46.9752 51.7431 47.2565 51.1162 47.5462ZM51.0852 45.0657C51.5426 44.758 52.062 44.3205 52.6432 43.7531C53.2227 43.1577 53.7855 42.5213 54.3317 41.8437C54.8762 41.1382 55.3263 40.4945 55.6822 39.9124C56.1166 39.2415 56.4419 38.6191 56.658 38.0453C56.8741 37.4715 57.0221 36.9298 57.102 36.4202C56.9707 36.1194 56.7687 35.8088 56.4958 35.4884C56.2212 35.1401 55.9852 34.9578 55.7878 34.9414C55.1729 34.9779 54.5409 35.4081 53.8917 36.232C53.2687 37.0263 52.6642 37.8896 52.078 38.8219C51.975 38.9683 51.8355 39.201 51.6593 39.52C51.4832 39.839 51.3061 40.144 51.1282 40.435C50.9764 40.6965 50.8753 40.8708 50.8247 40.9579C50.7479 41.0747 50.6006 41.406 50.3827 41.9518C50.191 42.4681 50.0002 42.9983 49.8102 43.5425C49.6185 44.0588 49.528 44.4007 49.5386 44.5684C49.5492 44.7361 49.5747 44.9169 49.6151 45.1108C49.6834 45.3031 49.8311 45.4206 50.0583 45.4632C50.2854 45.5058 50.6277 45.3733 51.0852 45.0657ZM79.177 45.1659C78.618 45.1991 78.1497 45.1147 77.7722 44.9127C77.3929 44.6827 77.0597 44.2958 76.7727 43.7519C76.6361 43.3673 76.5108 42.9399 76.3968 42.4699C76.309 41.9702 76.2518 41.5108 76.2253 41.0916C76.1969 40.6445 76.2202 40.3486 76.2952 40.2039C76.3999 40.0855 76.4295 39.8874 76.3838 39.6097C76.3643 39.3023 76.3439 38.9809 76.3227 38.6456C76.2593 38.0884 76.1 37.7893 75.8449 37.7483C75.616 37.6778 75.2859 37.7815 74.8546 38.0595C74.371 38.3968 73.7407 38.8549 72.9638 39.4339C72.1852 39.985 71.3681 40.5945 70.5127 41.2623C69.6852 41.9285 68.9014 42.6201 68.1613 43.3372C67.5889 44.0443 67.2443 44.5837 67.1276 44.9552C67.0371 45.2972 66.88 45.4748 66.6564 45.4881C66.4399 45.6131 66.2451 45.6387 66.0721 45.5648C65.9253 45.4614 65.705 45.3061 65.4113 45.0992C65.2015 44.8872 64.9925 44.6892 64.7845 44.5053C64.5746 44.2933 64.4382 44.1331 64.3752 44.0247C64.3664 43.8849 64.3897 43.589 64.4452 43.137C64.5007 42.6849 64.5702 42.232 64.6536 41.7782C64.765 41.3228 64.8442 41.0236 64.8913 40.8806C65.031 40.8723 65.134 40.7259 65.2001 40.4415C65.2942 40.1555 65.4424 39.8381 65.6447 39.4895C65.6794 39.1509 65.7908 38.6955 65.979 38.1233C66.1933 37.5216 66.3841 36.9914 66.5514 36.5327C66.9002 35.8388 67.1303 35.2642 67.2417 34.8088C67.3811 34.3517 67.4574 33.7862 67.4708 33.1122C67.4357 33.0021 67.4575 32.9026 67.536 32.8138C67.6128 32.6971 67.7071 32.6354 67.8189 32.6288C68.0283 32.3919 68.2903 32.3203 68.6049 32.4138C68.9176 32.4794 69.2104 32.6724 69.4832 32.9928C70.0289 33.6336 70.2688 34.3206 70.2031 35.0538C70.1636 35.7574 69.7801 36.7899 69.0529 38.1513C68.8856 38.61 68.754 38.9685 68.6581 39.2266C68.5884 39.4551 68.558 39.6392 68.5669 39.779C68.5669 39.779 68.7005 39.6729 68.9676 39.4607C69.2626 39.2468 69.5838 39.0034 69.9313 38.7303C70.3048 38.4277 70.599 38.1998 70.8138 38.0468C70.9447 37.8988 71.2501 37.6283 71.7302 37.2351C72.2103 36.842 72.7192 36.4612 73.257 36.0927C73.8209 35.6946 74.2408 35.4593 74.5168 35.3869C74.7333 35.2618 74.9647 35.1499 75.211 35.0512C75.4554 34.9245 75.6336 34.8578 75.7454 34.8512C75.969 34.8379 76.2564 34.947 76.6078 35.1786C76.9853 35.3806 77.3385 35.6402 77.6672 35.9573C77.9941 36.2464 78.1927 36.5011 78.2627 36.7213C78.2698 36.8331 78.2769 36.9449 78.284 37.0566C78.319 37.1668 78.3541 37.2769 78.3891 37.387C78.524 37.7436 78.6109 38.2293 78.6499 38.8441C78.7168 39.4572 78.7383 40.0169 78.7143 40.5232C78.6903 41.0295 78.611 41.3287 78.4766 41.4209C78.4766 41.4209 78.4793 41.4628 78.4846 41.5466C78.5161 41.6008 78.5877 41.6246 78.6995 41.618C78.7066 41.7298 78.711 41.7996 78.7128 41.8276C78.5731 41.8359 78.5251 41.9649 78.569 42.2148C78.6112 42.4367 78.711 42.6832 78.8684 42.9543C79.0539 43.2238 79.2357 43.4374 79.4141 43.5951C79.7707 43.9106 79.9309 44.2236 79.8945 44.5343C79.8563 44.8171 79.6171 45.0276 79.177 45.1659ZM87.4378 54.521C87.1321 54.5672 86.6525 54.5255 85.999 54.396C85.3734 54.2648 84.9025 54.1385 84.5862 54.017C84.2051 53.7591 83.8178 53.4034 83.4243 52.9499C83.0308 52.4965 82.7063 52.0249 82.4508 51.5351C82.2251 51.0717 82.1182 50.7134 82.1302 50.4602C82.144 50.235 82.3509 50.1807 82.7511 50.2972C83.1792 50.412 83.4702 50.5771 83.6242 50.7923C83.8952 51.0848 84.2073 51.3608 84.5604 51.6203C84.9136 51.8799 85.2623 52.0695 85.6065 52.1894C85.9526 52.3371 86.2226 52.3912 86.4164 52.3517C87.1081 52.1984 87.659 51.8151 88.069 51.2018C88.5087 50.6147 88.8828 49.8773 89.1912 48.9894C89.3758 48.3614 89.5107 47.8345 89.596 47.4087C89.7109 47.0092 89.8083 46.5546 89.8882 46.045C89.9961 45.5337 90.1195 44.8252 90.2584 43.9194C90.4462 42.8985 90.5687 42.1759 90.626 41.7518C90.7094 41.2981 90.7467 41.0013 90.7379 40.8616C90.729 40.7219 90.6809 40.6266 90.5935 40.5757C90.5935 40.5757 90.418 40.6843 90.0671 40.9014C89.7161 41.1186 89.3241 41.3522 88.8911 41.6023C88.486 41.8507 88.1761 42.0514 87.9613 42.2044C87.1946 42.5024 86.4357 42.7017 85.6846 42.8023C84.9335 42.903 84.3439 42.8959 83.9157 42.7811C83.7148 42.7088 83.4927 42.5257 83.2496 42.2316C83.0345 41.9358 82.8455 41.6104 82.6827 41.2554C82.5461 40.8709 82.4829 40.538 82.4932 40.2569C82.5069 40.0317 82.6114 39.6889 82.8067 39.2285C83.0019 38.7682 83.2234 38.2782 83.471 37.7586C83.7466 37.2374 83.9855 36.8025 84.1879 36.4539C84.4164 36.0757 84.5586 35.8849 84.6145 35.8816C84.7263 35.875 84.7795 35.8298 84.7742 35.7459C84.7968 35.6604 84.8046 35.5618 84.7975 35.45C84.8184 35.3366 85.013 35.0866 85.3812 34.7001C85.7757 34.284 86.3046 33.7758 86.9679 33.1755C87.8895 32.2232 88.7265 31.4864 89.479 30.9649C90.2315 30.4434 90.9414 30.1348 91.6087 30.0391C91.8061 30.0555 91.9887 30.0587 92.1564 30.0487C92.352 30.0371 92.4499 30.0313 92.4499 30.0313C92.4499 30.0313 92.5373 30.0822 92.7121 30.184C92.913 30.2563 93.1717 30.3531 93.488 30.4746C93.9179 30.6174 94.3138 30.8884 94.6758 31.2876C95.036 31.659 95.3308 32.1043 95.5601 32.6236C95.8156 33.1133 95.9733 33.6089 96.0332 34.1102C96.0442 34.7266 95.9425 35.3357 95.7282 35.9374C95.5418 36.5375 95.3359 36.8302 95.1105 36.8156C94.8852 36.8009 94.6119 36.9153 94.2906 37.1587C93.9973 37.4005 93.8542 37.5773 93.8613 37.6891C93.8684 37.8009 93.8354 37.9431 93.7621 38.1157C93.7169 38.2867 93.552 38.5629 93.2676 38.9444C93.2485 39.0858 93.1886 39.468 93.0878 40.0911C93.0132 40.6845 92.916 41.3635 92.7961 42.1279C92.6763 42.8924 92.566 43.5861 92.4652 44.2092C92.3906 44.8026 92.3446 45.184 92.3273 45.3533C92.3065 45.4668 92.2525 45.7224 92.1655 46.1203C92.1047 46.4885 92.0055 46.9151 91.8679 47.4001C91.7583 47.8835 91.6329 48.3397 91.4918 48.7688C91.4314 49.5858 91.3158 50.1957 91.1449 50.5985C91.0038 51.0276 90.7526 51.4913 90.3915 51.9896C90.0165 52.7131 89.5479 53.2878 88.9858 53.7139C88.4254 54.1679 87.9094 54.4369 87.4378 54.521ZM84.8257 40.5393C84.8993 40.8154 85.2828 40.8908 85.9763 40.7655C86.668 40.6123 87.3517 40.3333 88.0274 39.9285C88.6228 39.5847 89.1659 39.3 89.6566 39.0745C90.1473 38.8491 90.479 38.5489 90.6516 38.174C90.8016 37.8847 90.9236 37.5969 91.0177 37.3108C91.1118 37.0248 91.2259 36.6113 91.3599 36.0704C91.3808 35.957 91.4427 35.8271 91.5456 35.6807C91.6747 35.5048 91.7943 35.3995 91.9043 35.3649C92.0144 35.3304 92.1262 35.3237 92.2397 35.345C92.3813 35.3647 92.5525 35.4106 92.7535 35.4828C92.8897 35.4187 92.9787 35.2731 93.0204 35.0463C93.0901 34.8177 93.0881 34.5654 93.0145 34.2893C92.9741 34.0953 92.8175 33.8382 92.5447 33.5178C92.2719 33.1974 91.9336 32.951 91.5299 32.7786C91.0965 32.5799 90.6162 32.7487 90.0891 33.2848C89.5619 33.821 88.9161 34.4764 88.1516 35.251C87.546 35.876 86.97 36.5272 86.4238 37.2048C85.8776 37.8823 85.4406 38.5113 85.1126 39.0917C84.8127 39.6705 84.717 40.153 84.8257 40.5393ZM108.472 46.1204C107.595 46.4529 106.728 46.7147 105.87 46.9059C105.042 47.1233 104.148 47.1764 103.187 47.0651C102.256 46.9801 101.171 46.6798 99.9315 46.1643C99.8841 45.8586 99.7406 45.5866 99.501 45.3484C99.2876 45.0806 99.0543 44.9402 98.801 44.9271C98.6874 44.9058 98.5388 44.7744 98.3551 44.5329C98.1994 44.2897 98.0473 44.1023 97.8986 43.9709C97.7935 43.6406 97.7199 43.3644 97.6778 43.1426C97.6636 42.919 97.6729 42.6239 97.7058 42.2573C97.7369 41.8628 97.7862 41.3129 97.8537 40.6077C97.9704 40.2361 98.1315 39.6796 98.337 38.9382C98.5687 38.1671 98.8239 37.3245 99.1026 36.4104C99.4074 35.4667 99.7281 34.5501 100.064 33.6606C100.911 31.086 101.569 29.0695 102.038 27.6112C102.534 26.1512 102.872 25.0653 103.051 24.3534C103.231 23.6416 103.311 23.1319 103.291 22.8246C103.272 22.5172 103.182 22.2139 103.023 21.9149C102.822 21.3939 102.791 20.9188 102.933 20.4897C103.102 20.0589 103.446 19.73 103.964 19.5029C104.478 19.1919 105.007 18.9081 105.552 18.6514C106.123 18.3651 106.682 18.1215 107.231 17.9207C107.779 17.7198 108.289 17.5774 108.761 17.4933C109.148 17.4142 109.624 17.386 110.186 17.4087C110.749 17.4314 111.3 17.4969 111.84 17.6051C112.408 17.7116 112.894 17.8511 113.297 18.0235C113.699 18.1679 113.949 18.3495 114.047 18.568C114.047 18.568 114.09 18.5795 114.176 18.6025C114.261 18.6254 114.304 18.6369 114.304 18.6369C114.304 18.6369 114.361 18.6476 114.474 18.6689C114.588 18.6902 114.764 18.806 115.001 19.0163C115.323 19.2216 115.613 19.5831 115.87 20.1007C116.125 20.5905 116.21 21.0482 116.125 21.474C116.132 21.5858 116.172 21.7658 116.244 22.0139C116.343 22.2605 116.431 22.5358 116.506 22.8398C116.694 23.586 116.663 24.4293 116.414 25.3697C116.165 26.3101 115.599 27.3254 114.714 28.4158C114.403 28.8269 114.12 29.2224 113.863 29.6022C113.635 29.9804 113.45 30.1597 113.308 30.14C113.045 30.4081 112.853 30.7 112.732 31.0157C112.61 31.3034 112.677 31.4677 112.932 31.5087C112.932 31.5087 113.039 31.6426 113.252 31.9104C113.465 32.1783 113.752 32.4978 114.112 32.8692C114.695 33.648 115.091 34.5922 115.302 35.7016C115.539 36.7815 115.535 37.8335 115.292 38.8578C115.14 39.568 114.73 40.3917 114.06 41.3291C113.388 42.2384 112.561 43.129 111.578 44.0007C110.621 44.8429 109.586 45.5494 108.472 46.1204ZM103.754 44.7174C104.741 44.7991 105.782 44.6251 106.877 44.1955C107.972 43.7659 108.998 43.144 109.957 42.3298C110.941 41.486 111.71 40.5569 112.263 39.5424C112.984 38.5179 113.305 37.6153 113.228 36.8345C113.176 36.0241 112.89 35.2698 112.369 34.5714C111.909 33.9536 111.409 33.5906 110.869 33.4824C110.327 33.3462 109.766 33.3514 109.186 33.498C108.606 33.6446 108.001 33.8348 107.371 34.0686C106.845 34.1839 106.24 34.3741 105.555 34.6391C104.871 34.9041 104.241 35.1518 103.667 35.3823C103.118 35.5831 102.76 35.6885 102.592 35.6984C102.592 35.6984 102.514 35.7872 102.357 35.9649C102.2 36.1425 102.044 36.3341 101.888 36.5396C101.731 36.7172 101.642 36.8628 101.621 36.9762C101.485 37.0404 101.346 37.273 101.203 37.6742C101.058 38.0474 100.931 38.4757 100.821 38.959C100.738 39.4128 100.68 39.8229 100.647 40.1895C100.614 40.5561 100.625 40.7378 100.681 40.7344C100.823 40.7541 100.823 40.9785 100.682 41.4076C100.569 41.835 100.493 42.1901 100.455 42.4729C100.274 43.1568 100.533 43.7024 101.232 44.1097C101.959 44.5154 102.8 44.7179 103.754 44.7174ZM103.672 32.8155C103.894 32.7742 104.264 32.6401 104.783 32.413C105.3 32.1579 105.778 31.9612 106.218 31.8229C107.464 31.5527 108.595 31.0367 109.613 30.2751C110.657 29.4839 111.526 28.5908 112.221 27.596C112.942 26.5715 113.427 25.603 113.678 24.6906C113.826 24.3733 113.923 23.9047 113.968 23.285C114.011 22.6373 113.995 22.1754 113.922 21.8993L113.901 21.564C113.671 21.0446 113.158 20.6964 112.361 20.5193C111.565 20.3422 110.652 20.3262 109.623 20.4714C108.592 20.5887 107.613 20.8571 106.686 21.2768C106.307 21.4956 106.088 21.8031 106.029 22.1993C105.968 22.5675 105.888 23.0772 105.789 23.7282C105.722 24.4334 105.57 25.1436 105.335 25.8588C105.1 26.574 104.916 27.216 104.784 27.7848C104.763 27.8982 104.699 28.0002 104.593 28.0907C104.486 28.1811 104.439 28.3242 104.452 28.5198C104.452 28.5198 104.366 28.7212 104.196 29.124C104.053 29.5252 103.926 29.9674 103.817 30.4508C103.651 30.9374 103.524 31.3657 103.435 31.7356C103.375 32.1038 103.344 32.288 103.344 32.288C103.344 32.288 103.366 32.4129 103.41 32.6627C103.482 32.9109 103.569 32.9618 103.672 32.8155ZM122.49 42.3856C121.928 41.9421 121.492 41.4771 121.181 40.9907C120.897 40.5026 120.651 39.7178 120.442 38.6363C120.354 38.1366 120.369 37.4766 120.485 36.6563C120.6 35.808 120.781 34.9137 121.03 33.9733C121.279 33.0329 121.575 32.1739 121.919 31.3962C122.261 30.5905 122.615 29.9805 122.981 29.5661C123.29 29.127 123.541 28.8877 123.735 28.8481C123.955 28.779 124.353 28.8536 124.928 29.0719C125.258 29.4169 125.437 29.799 125.463 30.2182C125.49 30.6373 125.352 31.1223 125.051 31.6732C124.54 32.4608 124.111 33.4399 123.764 34.6105C123.444 35.7515 123.242 36.7732 123.159 37.6757C122.94 38.6424 122.855 39.2926 122.904 39.6262C122.953 39.9599 123.219 40.1685 123.701 40.2521C124.239 40.3324 124.856 40.0995 125.55 39.5533C126.244 38.9793 126.91 38.2105 127.55 37.2469C128.189 36.2553 128.682 35.1882 129.031 34.0456C129.174 33.6444 129.27 33.1759 129.32 32.64C129.399 32.1024 129.486 31.7045 129.581 31.4464C129.686 30.8792 129.856 30.4625 130.091 30.196C130.325 29.9017 130.581 29.7322 130.859 29.6877C131.135 29.6152 131.376 29.657 131.582 29.8131C131.841 29.9099 132.003 30.0405 132.07 30.2049C132.135 30.3413 132.159 30.7325 132.144 31.3785C132.21 32.4124 132.042 33.3059 131.641 34.059C131.24 34.8121 130.911 35.6029 130.655 36.4315C130.441 37.0333 130.105 37.7124 129.648 38.4687C129.219 39.2235 128.729 39.9117 128.18 40.5333C127.658 41.1533 127.139 41.5908 126.622 41.8459C125.871 42.3953 125.188 42.6883 124.573 42.7248C123.984 42.7317 123.29 42.6186 122.49 42.3856ZM144.55 43.0962C144.249 43.2262 144.028 43.2814 143.887 43.2617C143.771 43.2125 143.465 43.0203 142.966 42.6852C142.749 42.3615 142.605 42.0756 142.533 41.8274C142.488 41.5496 142.443 41.0614 142.398 40.3628C142.428 39.9404 142.501 39.3329 142.619 38.5406C142.765 37.7465 142.937 36.9089 143.133 36.0277C143.33 35.1465 143.504 34.3508 143.655 33.6406C143.835 32.9288 143.972 32.4438 144.068 32.1856C144.221 31.5034 144.237 31.0957 144.117 30.9626C143.994 30.8016 143.652 30.7097 143.089 30.687C141.962 30.6136 140.979 31.0366 140.14 31.9559C139.3 32.8753 138.478 34.0601 137.672 35.5103C137.066 36.584 136.718 37.5023 136.626 38.2651C136.56 38.9983 136.578 39.5021 136.68 39.7765C136.778 39.9951 136.981 40.1092 137.291 40.1189C137.598 40.1007 137.929 40.0109 138.284 39.8497C138.666 39.6867 138.993 39.5271 139.263 39.3708C139.452 39.2474 139.682 39.1215 139.955 38.9932C140.253 38.8352 140.539 38.6921 140.811 38.5637C140.979 38.5537 141.094 38.603 141.157 38.7115C141.246 38.7903 141.3 38.9695 141.318 39.2489C141.325 39.3607 141.373 39.456 141.462 39.5349C141.551 39.6137 141.653 39.6778 141.769 39.727C141.888 39.8322 141.736 40.0936 141.313 40.5114C140.919 40.9274 140.291 41.4135 139.428 41.9696C138.602 42.2149 137.923 42.3534 137.392 42.3849C136.889 42.4147 136.388 42.2621 135.89 41.9271C135.078 41.4984 134.582 40.7565 134.402 39.7013C134.249 38.6165 134.389 37.2759 134.821 35.6795C135.272 34.3905 135.794 33.3357 136.388 32.5151C136.979 31.6666 137.614 30.8436 138.293 30.046C138.398 29.9276 138.639 29.745 139.016 29.4982C139.419 29.2218 139.922 28.9676 140.525 28.7355C141.209 28.4705 141.857 28.2918 142.469 28.1994C143.08 28.107 143.619 28.2013 144.086 28.4821C144.596 28.5641 144.916 28.531 145.047 28.383C145.176 28.207 145.382 27.69 145.664 26.8317C146.135 25.4014 146.59 23.9579 147.031 22.5012C147.47 21.0166 147.95 19.5156 148.471 17.9981C148.717 17.4505 148.859 17.0354 148.897 16.7527C148.961 16.4403 149.046 16.2249 149.151 16.1065L149.947 16.0592C150.059 16.0526 150.261 16.1388 150.553 16.3178C150.845 16.4968 151.057 16.7507 151.19 17.0794C151.206 17.3309 151.13 17.8964 150.961 18.7759C150.791 19.6275 150.491 20.655 150.062 21.8585C149.681 22.919 149.3 23.9934 148.92 25.0818C148.566 26.1406 148.231 27.2685 147.914 28.4653C147.662 29.3498 147.427 30.065 147.209 30.6109C146.991 31.1567 146.852 31.6278 146.793 32.0239C146.672 32.7604 146.504 33.4296 146.289 34.0313C146.101 34.6034 145.972 35.0038 145.903 35.2323C145.607 36.3157 145.368 37.1994 145.187 37.8833C145.004 38.5393 144.871 39.0942 144.787 39.5479C144.702 39.9737 144.66 40.411 144.66 40.8597C144.687 41.2789 144.761 41.7794 144.882 42.3612C144.889 42.473 144.882 42.5856 144.861 42.6991C144.84 42.8125 144.736 42.9449 144.55 43.0962ZM151.865 41.2737C151.739 41.0568 151.589 40.8974 151.414 40.7956C151.237 40.6658 151.146 40.545 151.138 40.4333C151.131 40.3215 151.11 40.2105 151.075 40.1004C151.066 39.9607 151.003 39.8383 150.884 39.7331C150.733 39.5738 150.723 39.1957 150.854 38.5989C150.983 37.9742 151.215 37.2171 151.551 36.3276C151.886 35.4102 152.288 34.4467 152.757 33.4372C152.966 33.2004 153.171 32.8937 153.372 32.5171C153.572 32.1406 153.725 31.8931 153.83 31.7747C153.823 31.6629 153.858 31.5627 153.937 31.4739C154.014 31.3571 154.108 31.2954 154.22 31.2888L154.204 31.0373C154.195 30.8976 154.306 30.6526 154.536 30.3023C154.794 29.9504 155.107 29.5672 155.473 29.1528C155.838 28.7104 156.218 28.2952 156.615 27.907C157.009 27.4909 157.341 27.1908 157.61 27.0065C158.172 26.5805 158.758 26.3073 159.367 26.187C160.005 26.065 160.559 26.1724 161.029 26.5091C161.118 26.588 161.267 26.7194 161.475 26.9034C161.683 27.0874 161.921 27.2977 162.188 27.5342C162.482 27.7412 162.776 27.9621 163.072 28.1971L164.711 29.4882L164.089 31.6288C163.797 32.7681 163.761 33.752 163.982 34.5803C164.23 35.407 164.556 36.117 164.958 36.7102C165.118 37.0093 165.416 37.2861 165.853 37.5407C166.318 37.7936 166.748 37.9364 167.142 37.969C167.368 37.9837 167.583 38.0551 167.787 38.1832C167.992 38.3113 168.104 38.5291 168.123 38.8364C168.141 39.1159 168.099 39.3428 167.998 39.517C167.897 39.6913 167.708 39.8147 167.432 39.8872C166.517 40.0537 165.636 39.8816 164.79 39.3708C163.972 38.8583 163.187 37.9793 162.435 36.7337C162.312 36.5727 162.139 36.2744 161.915 35.8389C161.717 35.3738 161.6 35.0722 161.563 34.9342C161.46 35.0805 161.267 35.3584 160.985 35.7679C160.7 36.1494 160.48 36.429 160.323 36.6066C158.466 38.7363 156.833 40.1936 155.423 40.9784C154.041 41.7336 152.854 41.8321 151.865 41.2737ZM153.226 38.8369C153.238 39.0325 153.531 39.0151 154.106 38.7846C154.707 38.5246 155.339 38.0944 156.002 37.4941C156.901 36.6273 157.795 35.6767 158.683 34.6423C159.599 33.6062 160.324 32.6516 160.858 31.7784L161.685 30.2147C161.365 29.5886 161.03 29.1737 160.68 28.9701C160.357 28.7368 160.083 28.6268 159.859 28.6401C159.496 28.6617 158.972 29.0293 158.288 29.7431C157.632 30.4552 156.934 31.3942 156.194 32.56C155.455 33.7259 154.764 35.001 154.122 36.3855C153.878 36.9609 153.661 37.5208 153.471 38.065C153.307 38.5796 153.226 38.8369 153.226 38.8369ZM168.799 50.1562C168.14 50.3916 167.401 50.4635 166.582 50.3719C165.792 50.3066 165.092 50.1097 164.482 49.7812C163.844 49.4544 163.469 49.07 163.357 48.6279C163.319 48.4619 163.363 48.2769 163.49 48.073C163.59 47.8708 163.735 47.7219 163.925 47.6265C164.089 47.5606 164.246 47.6074 164.397 47.7668C164.629 47.8932 165.045 48.0368 165.644 48.1976C166.246 48.3864 166.905 48.3893 167.623 48.2065C168.257 48.0286 168.862 47.614 169.438 46.9628C170.042 46.3099 170.523 45.7063 170.88 45.1522C171.083 44.8036 171.422 44.1804 171.898 43.2826C172.374 42.3849 172.859 41.4024 173.352 40.3353C173.872 39.2387 174.299 38.2316 174.634 37.3142C174.703 37.0856 174.784 36.8144 174.877 36.5004C174.969 36.1863 175.093 35.9266 175.248 35.721C175.394 35.3757 175.515 35.06 175.609 34.774C175.729 34.4583 175.8 34.2437 175.82 34.1303C175.84 33.9889 175.948 33.702 176.145 33.2696C176.342 32.8372 176.525 32.4056 176.694 31.9748C176.807 31.5474 176.978 30.9202 177.206 30.0932C177.434 29.2662 177.672 28.593 177.919 28.0734C178.214 27.4108 178.447 26.8781 178.618 26.4753C178.815 26.0428 179.036 25.7772 179.282 25.6785C179.522 25.4679 179.683 25.3602 179.767 25.3552C179.879 25.3486 180.094 25.42 180.412 25.5694C180.769 25.8848 180.999 26.2077 181.105 26.5381C181.208 26.8405 181.191 27.2342 181.053 27.7192C180.942 28.1746 180.701 28.8059 180.332 29.6132C180.151 30.2971 179.938 30.9268 179.694 31.5023C179.476 32.0481 179.303 32.4091 179.173 32.585C179.055 32.9286 178.911 33.3158 178.742 33.7466C178.599 34.1478 178.468 34.5201 178.35 34.8638C177.918 36.0114 177.542 36.9453 177.223 37.6654C176.904 38.3856 176.623 39.0473 176.381 39.6508C176.139 40.2542 175.889 40.9562 175.631 41.7569C175.053 42.8289 174.487 43.8443 173.93 44.8029C173.403 45.7878 172.83 46.7054 172.211 47.5556C171.947 47.8236 171.617 48.1378 171.219 48.498C170.821 48.8582 170.407 49.1913 169.977 49.4973C169.576 49.8016 169.183 50.0212 168.799 50.1562ZM173.821 39.7606C173.398 39.7296 172.963 39.503 172.515 39.0807C172.096 38.6569 171.758 38.2 171.502 37.7103C171.247 37.2206 171.14 36.8623 171.182 36.6354C171.173 36.4957 171.166 36.3839 171.161 36.3001C171.155 36.2163 171.153 36.1744 171.153 36.1744C170.985 36.1843 170.818 35.9839 170.651 35.573C170.513 35.1605 170.395 34.6205 170.296 33.9532C170.198 33.2859 170.111 32.5758 170.035 31.823C169.987 31.0685 169.97 30.3542 169.983 29.6803C170.065 29.1986 170.088 28.6783 170.053 28.1194C170.015 27.5326 170 27.0707 170.007 26.7337C169.95 26.2883 169.974 25.9924 170.077 25.846C170.178 25.6717 170.282 25.5394 170.388 25.4489C171.15 25.0671 171.68 25.246 171.979 25.9856C172.305 26.6955 172.462 28.0606 172.449 30.0809C172.464 31.202 172.535 32.3197 172.662 33.4342C172.789 34.5486 173.005 35.5175 173.309 36.3409C173.642 37.1626 174.056 37.7131 174.55 37.9923C174.753 38.0925 174.861 38.2403 174.873 38.4359C174.885 38.6316 174.843 38.8444 174.745 39.0746C174.646 39.2769 174.503 39.4537 174.316 39.605C174.155 39.7267 173.99 39.7786 173.821 39.7606ZM186.926 39.4879C186.706 39.557 186.414 39.6024 186.051 39.6239C185.686 39.6176 185.362 39.5947 185.079 39.5554C184.822 39.4865 184.691 39.4101 184.685 39.3263C184.677 39.1866 184.602 39.1209 184.463 39.1292C184.463 39.1292 184.389 39.0774 184.242 38.9739C184.123 38.8688 183.935 38.7678 183.676 38.6709C183.4 38.2947 183.247 37.883 183.219 37.4359C183.189 36.9608 183.268 36.2128 183.455 35.1919C183.495 34.4884 183.709 33.6622 184.098 32.7136C184.513 31.7353 185.025 30.7372 185.633 29.7194C186.242 28.7015 186.885 27.7798 187.562 26.9543C188.267 26.1271 188.916 25.5136 189.508 25.1138C189.874 24.6994 190.336 24.4616 190.893 24.4005C191.45 24.3394 191.99 24.4336 192.51 24.6832C192.799 24.8064 193.092 25.0133 193.391 25.3041C193.69 25.5949 193.977 25.9145 194.252 26.2628C194.526 26.6112 194.759 26.962 194.95 27.3153C195.053 27.6177 195.113 27.8947 195.129 28.1462C195.171 28.3681 195.189 28.6475 195.182 28.9845C195.203 29.3198 195.193 29.8253 195.152 30.5009C195.044 31.0122 194.957 31.6345 194.891 32.3676C194.854 33.0991 194.852 33.7304 194.885 34.2613C194.863 34.7956 194.943 35.1695 195.125 35.3831C195.335 35.595 195.615 35.5924 195.966 35.3752C196.291 35.1877 196.608 35.0987 196.917 35.1084C197.224 35.0902 197.467 35.1599 197.646 35.3176C197.852 35.4737 197.966 35.7194 197.987 36.0547C198.008 36.39 197.863 36.7493 197.55 37.1325C197.264 37.486 196.891 37.8027 196.432 38.0824C195.999 38.3324 195.573 38.4699 195.154 38.4948C194.846 38.513 194.541 38.3488 194.239 38.0021C193.934 37.6275 193.654 37.1814 193.396 36.6637C193.165 36.1164 192.95 35.5963 192.75 35.1032L192.438 34.1541L190.744 35.9796C190.405 36.3924 190.065 36.7772 189.723 37.1341C189.407 37.4614 189.211 37.6974 189.136 37.8421C189.013 38.1019 188.763 38.3691 188.388 38.6438C188.04 38.9169 187.553 39.1982 186.926 39.4879ZM186.895 37.0074C187.353 36.6997 187.872 36.2622 188.453 35.6948C189.033 35.0994 189.595 34.463 190.142 33.7854C190.686 33.08 191.136 32.4362 191.492 31.8541C191.927 31.1832 192.252 30.5608 192.468 29.987C192.684 29.4132 192.832 28.8715 192.912 28.3619C192.781 28.0611 192.579 27.7505 192.306 27.4301C192.031 27.0818 191.795 26.8995 191.598 26.8831C190.983 26.9196 190.351 27.3498 189.702 28.1737C189.079 28.968 188.474 29.8313 187.888 30.7636C187.785 30.91 187.645 31.1427 187.469 31.4617C187.293 31.7807 187.116 32.0857 186.938 32.3767C186.786 32.6382 186.685 32.8125 186.635 32.8996C186.558 33.0164 186.411 33.3477 186.193 33.8935C186.001 34.4098 185.81 34.94 185.62 35.4842C185.428 36.0005 185.338 36.3424 185.349 36.5101C185.359 36.6778 185.385 36.8586 185.425 37.0525C185.493 37.2448 185.641 37.3623 185.868 37.4049C186.095 37.4475 186.438 37.315 186.895 37.0074Z" fill="white"/>
<path d="M77.2546 65.5532C97.6721 61.699 113.976 58.8264 167.323 61.0168C88.1015 59.111 82.2845 70.3886 77.2546 65.5532Z" fill="white"/>
</svg>
