<svg width="42" height="42" viewBox="0 0 42 42" fill="none" xmlns="http://www.w3.org/2000/svg">
<path d="M26.25 28C26.25 25.151 23.849 22.75 21 22.75C18.151 22.75 15.75 25.151 15.75 28C15.75 30.849 18.151 33.25 21 33.25C23.849 33.25 26.25 30.849 26.25 28Z" fill="white"/>
<path d="M31.5 28L31.5 14C31.5 8.232 26.8065 3.5315 21.0245 3.5L20.951 3.5C18.1762 3.51754 15.5207 4.63097 13.5631 6.59771C11.6056 8.56444 10.5046 11.2251 10.5 14L10.5 28C10.5 33.7907 15.2092 38.5 21 38.5C26.7907 38.5 31.5 33.7908 31.5 28ZM14 28L14 14C14.0028 12.1474 14.7387 10.3711 16.0471 9.05948C17.3555 7.74783 19.1299 7.0074 20.9825 7C24.8517 7.007 28 10.1465 28 14L28 28C28 31.8605 24.8605 35 21 35C17.1395 35 14 31.8605 14 28Z" fill="white"/>
</svg>
